<?xml version="1.0" encoding="utf-8"?>
<!-- Generator: Adobe Illustrator 16.0.0, SVG Export Plug-In . SVG Version: 6.00 Build 0)  -->
<!DOCTYPE svg PUBLIC "-//W3C//DTD SVG 1.1//EN" "http://www.w3.org/Graphics/SVG/1.1/DTD/svg11.dtd">
<svg version="1.1" id="Layer_1" xmlns="http://www.w3.org/2000/svg" xmlns:xlink="http://www.w3.org/1999/xlink" x="0px" y="0px"
	 width="300px" height="300px" viewBox="0 0 300 300" enable-background="new 0 0 300 300" xml:space="preserve">
<g>
	<path fill="#CBA985" d="M170.582,268.555c0-23.525,19.068-42.591,42.589-42.591c10.871,0,20.759,4.108,28.282,10.81
		c2.969-9.416,4.543-19.596,4.543-30.644c0-12.229-2.489-23.769-7.471-34.612c-5.531-12.099-13.138-20.925-22.813-26.488
		c-3.6-2.084-5.391-3.613-5.391-4.587c0,0.416,2.553-2.223,7.674-7.926c5.807-6.532,10.505-13.064,14.104-19.602
		c4.977-9.177,7.467-17.861,7.467-26.067c0-31.417-10.721-53.731-32.149-66.941c-16.181-9.871-41.275-15.433-75.296-16.684
		c-7.465-0.276-33.256-0.416-77.364-0.416c-27.518,0-43.525,0.278-48.017,0.834C2.245,4.197,0.067,5.796,0.205,8.436l0.208,2.92
		C1.517,34.159,2.28,51.257,2.695,62.657c1.658,44.492,2.491,74.796,2.491,90.923c0,15.015-0.866,37.609-2.595,67.777
		C0.86,251.527,0,274.05,0,288.923c0,3.479,2.001,5.63,6.015,6.463c9.676,2.091,40.032,3.13,91.054,3.13c3.179,0,8.09,0,14.729,0
		c6.498,0.135,11.474,0.207,14.935,0.207c19.856,0,37.106-1.84,51.746-5.524C173.523,286.24,170.582,277.746,170.582,268.555z
		 M83.07,77.149c0.48-5.349,0.726-9.35,0.726-11.991c0-2.222,7.465-3.338,22.399-3.338c15.209,0,26.133,1.042,32.772,3.13
		c11.891,3.891,17.837,11.817,17.837,23.772c0,17.102-14.864,25.651-44.594,25.651c-16.042,0-24.819-0.626-26.34-1.876
		c-2.353-1.669-3.528-9.454-3.528-23.356C82.342,86.5,82.584,82.502,83.07,77.149z M147.888,229.49
		c-6.088,2.363-16.595,3.545-31.529,3.545c-18.116,0-28.072-0.869-29.867-2.609c-1.799-1.738-2.696-10.805-2.696-27.212
		c0-15.712,0.759-24.228,2.28-25.548s11.201-1.98,29.039-1.98c14.936,0,25.719,1.394,32.358,4.168
		c10.372,4.451,15.555,12.933,15.555,25.445C163.027,217.391,157.979,225.459,147.888,229.49z"/>
	<path fill="#CBA985" d="M214.443,239.684c15.682,0,28.393,12.707,28.393,28.394c0,15.68-12.711,28.391-28.393,28.391
		c-15.68,0-28.391-12.711-28.391-28.391C186.054,252.391,198.765,239.684,214.443,239.684z"/>
</g>
</svg>
